<?xml version="1.0" encoding="utf-8"?>
<!-- Generator: Adobe Illustrator 23.0.0, SVG Export Plug-In . SVG Version: 6.00 Build 0)  -->
<svg version="1.1" id="Capa_1" xmlns="http://www.w3.org/2000/svg" xmlns:xlink="http://www.w3.org/1999/xlink" x="0px" y="0px"
	 viewBox="0 0 61.4 64.6" style="enable-background:new 0 0 61.4 64.6;" xml:space="preserve">
<style type="text/css">
	.st0{opacity:0.15;}
	.st1{fill:#42A1A3;}
	.st2{fill:#FFFFFF;}
</style>
<g>
	<g>
		<path class="st0" d="M46.9,60.4c0,1.4-7.3,2.5-16.2,2.5c-8.9,0-16.2-1.1-16.2-2.5c0-1.4,7.3-2.5,16.2-2.5
			C39.6,57.9,46.9,59,46.9,60.4z"/>
		<g>
			<path class="st1" d="M46.3,8.1c-8.6-9.6-22.7-9.6-31.3,0c-8.6,9.6-8.6,25.1,0,34.6l15.7,17.3l15.7-17.3C55,33.2,55,17.7,46.3,8.1
				z"/>
			<path class="st1" d="M46.3,8.7c-8.6-9.6-22.7-9.6-31.3,0c-8.6,9.6-8.6,25.1,0,34.6l15.7,17.3l15.7-17.3C55,33.8,55,18.3,46.3,8.7
				z"/>
		</g>
		<g>
			<defs>
				<path id="SVGID_1_" d="M46.3,8.7c-8.6-9.6-22.7-9.6-31.3,0c-8.6,9.6-8.6,25.1,0,34.6l15.7,17.3l15.7-17.3
					C55,33.8,55,18.3,46.3,8.7z"/>
			</defs>
			<clipPath id="SVGID_2_">
				<use xlink:href="#SVGID_1_"  style="overflow:visible;"/>
			</clipPath>
		</g>
	</g>
	<circle class="st2" cx="30.7" cy="23.8" r="11.9"/>
</g>
<image style="overflow:visible;" width="256" height="256" xlink:href="zone-icon2.png"  transform="matrix(0.24 0 0 0.24 231.2195 87.7688)">
</image>
</svg>
